<?xml version="1.0" encoding="UTF-8"?>
<svg xmlns="http://www.w3.org/2000/svg" width="2400" height="900" viewBox="0 0 1600 600">
  <rect width="1600" height="600" fill="none"/>
  <g transform="translate(95,50) scale(0.86)">
    
  <defs>
    <linearGradient id="tealGrad" x1="165" y1="500" x2="500" y2="160" gradientUnits="userSpaceOnUse">
      <stop offset="0" stop-color="#0E8F81"/>
      <stop offset="0.55" stop-color="#12BFA5"/>
      <stop offset="1" stop-color="#36D9B8"/>
    </linearGradient>
  </defs>
  <g fill="none" stroke-linecap="round" stroke-linejoin="round">
    <!-- upper clock / time arc -->
    <path d="M 423 150 C 350 86, 230 82, 156 168 C 84 252, 111 340, 235 389" 
          stroke="#151A1F" stroke-width="36"/>

    <!-- lower hourglass / value flow -->
    <path d="M 232 392 C 177 426, 168 476, 168 510 L 432 510 C 432 472, 419 431, 366 392" 
          stroke="url(#tealGrad)" stroke-width="36"/>

    <!-- rising value arrow -->
    <path d="M 366 392 C 430 350, 456 280, 450 221" 
          stroke="url(#tealGrad)" stroke-width="36"/>
    <path d="M 421 227 L 457 205 L 474 245" 
          stroke="url(#tealGrad)" stroke-width="36"/>

    <!-- clock hands -->
    <path d="M 300 186 L 300 300 L 355 326" 
          stroke="#151A1F" stroke-width="34"/>
  </g>

  </g>
  <g>
    <text x="660" y="300" font-family="Montserrat, Inter, Arial, sans-serif" font-size="138" font-weight="600" fill="#151A1F" letter-spacing="0">T</text>
<text x="790" y="300" font-family="Montserrat, Inter, Arial, sans-serif" font-size="138" font-weight="600" fill="#12BFA5" letter-spacing="0">O</text>
<text x="930" y="300" font-family="Montserrat, Inter, Arial, sans-serif" font-size="138" font-weight="600" fill="#151A1F" letter-spacing="0">T</text>
<text x="1064" y="300" font-family="Montserrat, Inter, Arial, sans-serif" font-size="138" font-weight="600" fill="#151A1F" letter-spacing="0">I</text>
<text x="1162" y="300" font-family="Montserrat, Inter, Arial, sans-serif" font-size="138" font-weight="600" fill="#151A1F" letter-spacing="0">M</text>
<text x="1325" y="300" font-family="Montserrat, Inter, Arial, sans-serif" font-size="138" font-weight="600" fill="#151A1F" letter-spacing="0">E</text>
    <text x="662" y="392" font-family="Montserrat, Inter, Arial, sans-serif" font-size="48" font-weight="400" fill="#12BFA5" letter-spacing="8">Il tempo è valore</text>
  </g>
</svg>
