<?xml version="1.0" encoding="UTF-8"?>
<svg xmlns="http://www.w3.org/2000/svg" width="512" height="512" viewBox="0 0 600 600">
  <rect width="600" height="600" fill="#151A1F"/>
  <defs>
    <linearGradient id="sageGrad" x1="165" y1="500" x2="500" y2="160" gradientUnits="userSpaceOnUse">
      <stop offset="0" stop-color="#77887A"/>
      <stop offset="0.55" stop-color="#93A395"/>
      <stop offset="1" stop-color="#C1CAC0"/>
    </linearGradient>
  </defs>
  <g transform="translate(300,300) scale(0.82) translate(-300,-300)" fill="none" stroke-linecap="round" stroke-linejoin="round">
    <!-- upper clock / time arc -->
    <path d="M 423 150 C 350 86, 230 82, 156 168 C 84 252, 111 340, 235 389"
          stroke="#F5F7FB" stroke-width="36"/>
    <!-- lower hourglass / value flow -->
    <path d="M 232 392 C 177 426, 168 476, 168 510 L 432 510 C 432 472, 419 431, 366 392"
          stroke="url(#sageGrad)" stroke-width="36"/>
    <!-- rising value arrow -->
    <path d="M 366 392 C 430 350, 456 280, 450 221"
          stroke="url(#sageGrad)" stroke-width="36"/>
    <path d="M 421 227 L 457 205 L 474 245"
          stroke="url(#sageGrad)" stroke-width="36"/>
    <!-- clock hands -->
    <path d="M 300 186 L 300 300 L 355 326"
          stroke="#F5F7FB" stroke-width="34"/>
  </g>
</svg>
